<mxfile host="app.diagrams.net" modified="2023-03-28T16:25:19.129Z" agent="Mozilla/5.0 (Windows NT 10.0; Win64; x64) AppleWebKit/537.36 (KHTML, like Gecko) Chrome/111.0.0.0 Safari/537.36 Edg/111.0.1661.54" etag="MWLdFTq5Dzt4fEfkbv1X" version="21.1.1" type="device">
  <diagram name="Page-1" id="wrh6u3vPimuFKa-tyXvt">
    <mxGraphModel dx="1050" dy="573" grid="1" gridSize="10" guides="1" tooltips="1" connect="1" arrows="1" fold="1" page="1" pageScale="1" pageWidth="827" pageHeight="1169" background="#ffffff" math="0" shadow="0">
      <root>
        <mxCell id="0" />
        <mxCell id="1" parent="0" />
        <mxCell id="Bhm3AzSd8e_pB51hkN4D-1" value="Driver" style="swimlane;childLayout=stackLayout;horizontal=1;startSize=50;horizontalStack=0;rounded=1;fontSize=14;fontStyle=0;strokeWidth=2;resizeParent=0;resizeLast=1;shadow=0;dashed=0;align=center;arcSize=4;whiteSpace=wrap;html=1;labelBackgroundColor=none;fillColor=#FAE5C7;strokeColor=#0F8B8D;fontColor=#143642;" parent="1" vertex="1">
          <mxGeometry x="100" y="130" width="163" height="143" as="geometry" />
        </mxCell>
        <mxCell id="Bhm3AzSd8e_pB51hkN4D-2" value="&lt;font style=&quot;font-size: 12px;&quot;&gt;+driver_name&lt;br&gt;+driver_address&lt;br&gt;+driver_father_name&lt;br&gt;+driver_photo&lt;br&gt;+auto_rickshaw_number&lt;/font&gt;" style="align=left;strokeColor=none;fillColor=none;spacingLeft=4;fontSize=12;verticalAlign=top;resizable=0;rotatable=0;part=1;html=1;labelBackgroundColor=none;fontColor=#143642;" parent="Bhm3AzSd8e_pB51hkN4D-1" vertex="1">
          <mxGeometry y="50" width="163" height="93" as="geometry" />
        </mxCell>
        <mxCell id="Bhm3AzSd8e_pB51hkN4D-5" value="Autorickshaw" style="swimlane;childLayout=stackLayout;horizontal=1;startSize=50;horizontalStack=0;rounded=1;fontSize=14;fontStyle=0;strokeWidth=2;resizeParent=0;resizeLast=1;shadow=0;dashed=0;align=center;arcSize=4;whiteSpace=wrap;html=1;labelBackgroundColor=none;fillColor=#FAE5C7;strokeColor=#0F8B8D;fontColor=#143642;" parent="1" vertex="1">
          <mxGeometry x="370" y="266" width="163" height="124" as="geometry" />
        </mxCell>
        <mxCell id="Bhm3AzSd8e_pB51hkN4D-6" value="&lt;div&gt;&amp;nbsp;+auto_rickshaw_number&lt;/div&gt;&lt;div&gt;&amp;nbsp;+auto_rickshaw_company&lt;/div&gt;&lt;div&gt;&amp;nbsp;+auto_rickshaw_model&lt;/div&gt;&lt;div&gt;&amp;nbsp;+auto_rickshaw_color&lt;/div&gt;" style="align=left;strokeColor=none;fillColor=none;spacingLeft=4;fontSize=12;verticalAlign=top;resizable=0;rotatable=0;part=1;html=1;labelBackgroundColor=none;fontColor=#143642;" parent="Bhm3AzSd8e_pB51hkN4D-5" vertex="1">
          <mxGeometry y="50" width="163" height="74" as="geometry" />
        </mxCell>
        <mxCell id="Bhm3AzSd8e_pB51hkN4D-9" value="Owner" style="swimlane;childLayout=stackLayout;horizontal=1;startSize=50;horizontalStack=0;rounded=1;fontSize=14;fontStyle=0;strokeWidth=2;resizeParent=0;resizeLast=1;shadow=0;dashed=0;align=center;arcSize=4;whiteSpace=wrap;html=1;labelBackgroundColor=none;fillColor=#FAE5C7;strokeColor=#0F8B8D;fontColor=#143642;" parent="1" vertex="1">
          <mxGeometry x="630" y="130" width="163" height="143" as="geometry" />
        </mxCell>
        <mxCell id="Bhm3AzSd8e_pB51hkN4D-10" value="&lt;div style=&quot;border-color: var(--border-color);&quot;&gt;+owner_name&lt;/div&gt;&lt;div style=&quot;border-color: var(--border-color);&quot;&gt;+owner_address&lt;/div&gt;&lt;div style=&quot;border-color: var(--border-color);&quot;&gt;+owner_father_name&lt;/div&gt;&lt;div style=&quot;border-color: var(--border-color);&quot;&gt;+owner_photo&lt;/div&gt;&lt;div style=&quot;border-color: var(--border-color);&quot;&gt;+auto_rickshaw_number&lt;/div&gt;" style="align=left;strokeColor=none;fillColor=none;spacingLeft=4;fontSize=12;verticalAlign=top;resizable=0;rotatable=0;part=1;html=1;labelBackgroundColor=none;fontColor=#143642;" parent="Bhm3AzSd8e_pB51hkN4D-9" vertex="1">
          <mxGeometry y="50" width="163" height="93" as="geometry" />
        </mxCell>
        <mxCell id="Bhm3AzSd8e_pB51hkN4D-17" value="Permission" style="swimlane;childLayout=stackLayout;horizontal=1;startSize=50;horizontalStack=0;rounded=1;fontSize=14;fontStyle=0;strokeWidth=2;resizeParent=0;resizeLast=1;shadow=0;dashed=0;align=center;arcSize=4;whiteSpace=wrap;html=1;labelBackgroundColor=none;fillColor=#FAE5C7;strokeColor=#0F8B8D;fontColor=#143642;" parent="1" vertex="1">
          <mxGeometry x="630" y="500" width="163" height="124" as="geometry" />
        </mxCell>
        <mxCell id="Bhm3AzSd8e_pB51hkN4D-18" value="&lt;div&gt;+permission_area&lt;/div&gt;&lt;div&gt;+permission_date&lt;/div&gt;&lt;div&gt;+expiration_date&lt;/div&gt;&lt;div&gt;+auto_rickshaw_number&lt;/div&gt;" style="align=left;strokeColor=none;fillColor=none;spacingLeft=4;fontSize=12;verticalAlign=top;resizable=0;rotatable=0;part=1;html=1;labelBackgroundColor=none;fontColor=#143642;" parent="Bhm3AzSd8e_pB51hkN4D-17" vertex="1">
          <mxGeometry y="50" width="163" height="74" as="geometry" />
        </mxCell>
        <mxCell id="Bhm3AzSd8e_pB51hkN4D-19" value="Authority" style="swimlane;childLayout=stackLayout;horizontal=1;startSize=50;horizontalStack=0;rounded=1;fontSize=14;fontStyle=0;strokeWidth=2;resizeParent=0;resizeLast=1;shadow=0;dashed=0;align=center;arcSize=4;whiteSpace=wrap;html=1;labelBackgroundColor=none;fillColor=#FAE5C7;strokeColor=#0F8B8D;fontColor=#143642;" parent="1" vertex="1">
          <mxGeometry x="630" y="740" width="163" height="135" as="geometry" />
        </mxCell>
        <mxCell id="Bhm3AzSd8e_pB51hkN4D-20" value="&lt;div&gt;+authority_name&lt;/div&gt;&lt;div&gt;+authority_job_title&lt;/div&gt;&lt;div&gt;+authority_signature&lt;/div&gt;&lt;div&gt;+authority_area_permission&lt;/div&gt;&lt;div&gt;+auto_rickshaw_number&lt;/div&gt;" style="align=left;strokeColor=none;fillColor=none;spacingLeft=4;fontSize=12;verticalAlign=top;resizable=0;rotatable=0;part=1;html=1;labelBackgroundColor=none;fontColor=#143642;" parent="Bhm3AzSd8e_pB51hkN4D-19" vertex="1">
          <mxGeometry y="50" width="163" height="85" as="geometry" />
        </mxCell>
        <mxCell id="Bhm3AzSd8e_pB51hkN4D-21" value="Round" style="swimlane;childLayout=stackLayout;horizontal=1;startSize=50;horizontalStack=0;rounded=1;fontSize=14;fontStyle=0;strokeWidth=2;resizeParent=0;resizeLast=1;shadow=0;dashed=0;align=center;arcSize=4;whiteSpace=wrap;html=1;labelBackgroundColor=none;fillColor=#FAE5C7;strokeColor=#0F8B8D;fontColor=#143642;" parent="1" vertex="1">
          <mxGeometry x="347" y="566" width="163" height="150" as="geometry" />
        </mxCell>
        <mxCell id="Bhm3AzSd8e_pB51hkN4D-55" value="&lt;div&gt;+round_no&lt;/div&gt;&lt;div&gt;+round_date&lt;/div&gt;&lt;div&gt;+round_start_time&lt;/div&gt;&lt;div&gt;+round_end_time&lt;/div&gt;&lt;div&gt;+round_area&lt;/div&gt;&lt;div style=&quot;&quot;&gt;+auto_rickshaw_number&lt;/div&gt;" style="text;html=1;align=left;verticalAlign=middle;resizable=0;points=[];autosize=1;strokeColor=none;fillColor=none;fontColor=#143642;" parent="Bhm3AzSd8e_pB51hkN4D-21" vertex="1">
          <mxGeometry y="50" width="163" height="100" as="geometry" />
        </mxCell>
        <mxCell id="Bhm3AzSd8e_pB51hkN4D-27" style="edgeStyle=orthogonalEdgeStyle;rounded=0;orthogonalLoop=1;jettySize=auto;html=1;exitX=1;exitY=0.5;exitDx=0;exitDy=0;entryX=0;entryY=0.595;entryDx=0;entryDy=0;entryPerimeter=0;labelBackgroundColor=none;strokeColor=#A8201A;fontColor=default;" parent="1" source="Bhm3AzSd8e_pB51hkN4D-26" target="Bhm3AzSd8e_pB51hkN4D-6" edge="1">
          <mxGeometry relative="1" as="geometry" />
        </mxCell>
        <mxCell id="Bhm3AzSd8e_pB51hkN4D-29" style="edgeStyle=orthogonalEdgeStyle;rounded=0;orthogonalLoop=1;jettySize=auto;html=1;exitX=0;exitY=0.5;exitDx=0;exitDy=0;entryX=0.16;entryY=1;entryDx=0;entryDy=0;entryPerimeter=0;labelBackgroundColor=none;strokeColor=#A8201A;fontColor=default;" parent="1" source="Bhm3AzSd8e_pB51hkN4D-26" target="Bhm3AzSd8e_pB51hkN4D-2" edge="1">
          <mxGeometry relative="1" as="geometry" />
        </mxCell>
        <mxCell id="Bhm3AzSd8e_pB51hkN4D-26" value="drives" style="shape=rhombus;perimeter=rhombusPerimeter;whiteSpace=wrap;html=1;align=center;labelBackgroundColor=none;fillColor=#FAE5C7;strokeColor=#0F8B8D;fontColor=#143642;" parent="1" vertex="1">
          <mxGeometry x="170" y="330" width="120" height="60" as="geometry" />
        </mxCell>
        <mxCell id="Bhm3AzSd8e_pB51hkN4D-30" value="manages" style="shape=rhombus;perimeter=rhombusPerimeter;whiteSpace=wrap;html=1;align=center;labelBackgroundColor=none;fillColor=#FAE5C7;strokeColor=#0F8B8D;fontColor=#143642;" parent="1" vertex="1">
          <mxGeometry x="368.5" y="850" width="128.5" height="60" as="geometry" />
        </mxCell>
        <mxCell id="Bhm3AzSd8e_pB51hkN4D-36" style="edgeStyle=orthogonalEdgeStyle;rounded=0;orthogonalLoop=1;jettySize=auto;html=1;exitX=0.5;exitY=0;exitDx=0;exitDy=0;entryX=0.313;entryY=0.989;entryDx=0;entryDy=0;entryPerimeter=0;labelBackgroundColor=none;strokeColor=#A8201A;fontColor=default;" parent="1" source="Bhm3AzSd8e_pB51hkN4D-35" target="Bhm3AzSd8e_pB51hkN4D-10" edge="1">
          <mxGeometry relative="1" as="geometry" />
        </mxCell>
        <mxCell id="Bhm3AzSd8e_pB51hkN4D-35" value="owns" style="shape=rhombus;perimeter=rhombusPerimeter;whiteSpace=wrap;html=1;align=center;labelBackgroundColor=none;fillColor=#FAE5C7;strokeColor=#0F8B8D;fontColor=#143642;" parent="1" vertex="1">
          <mxGeometry x="620" y="310" width="120" height="60" as="geometry" />
        </mxCell>
        <mxCell id="Bhm3AzSd8e_pB51hkN4D-37" value="" style="endArrow=none;html=1;rounded=0;labelBackgroundColor=none;strokeColor=#A8201A;fontColor=default;" parent="1" target="Bhm3AzSd8e_pB51hkN4D-35" edge="1">
          <mxGeometry width="50" height="50" relative="1" as="geometry">
            <mxPoint x="530" y="340" as="sourcePoint" />
            <mxPoint x="450" y="290" as="targetPoint" />
          </mxGeometry>
        </mxCell>
        <mxCell id="Bhm3AzSd8e_pB51hkN4D-64" style="edgeStyle=orthogonalEdgeStyle;rounded=0;orthogonalLoop=1;jettySize=auto;html=1;exitX=0.5;exitY=0;exitDx=0;exitDy=0;entryX=0.362;entryY=0.986;entryDx=0;entryDy=0;entryPerimeter=0;strokeColor=#A8201A;fontColor=#143642;fillColor=#FAE5C7;" parent="1" source="Bhm3AzSd8e_pB51hkN4D-39" target="Bhm3AzSd8e_pB51hkN4D-6" edge="1">
          <mxGeometry relative="1" as="geometry" />
        </mxCell>
        <mxCell id="Bhm3AzSd8e_pB51hkN4D-39" value="assigned to" style="shape=rhombus;perimeter=rhombusPerimeter;whiteSpace=wrap;html=1;align=center;labelBackgroundColor=none;fillColor=#FAE5C7;strokeColor=#0F8B8D;fontColor=#143642;" parent="1" vertex="1">
          <mxGeometry x="368.5" y="470" width="120" height="60" as="geometry" />
        </mxCell>
        <mxCell id="Bhm3AzSd8e_pB51hkN4D-62" style="edgeStyle=orthogonalEdgeStyle;rounded=0;orthogonalLoop=1;jettySize=auto;html=1;exitX=0.5;exitY=0;exitDx=0;exitDy=0;strokeColor=#A8201A;fontColor=#143642;fillColor=#FAE5C7;" parent="1" target="Bhm3AzSd8e_pB51hkN4D-6" edge="1">
          <mxGeometry relative="1" as="geometry">
            <mxPoint x="191.5" y="470" as="sourcePoint" />
            <Array as="points">
              <mxPoint x="192" y="430" />
              <mxPoint x="390" y="430" />
            </Array>
          </mxGeometry>
        </mxCell>
        <mxCell id="Bhm3AzSd8e_pB51hkN4D-43" value="" style="endArrow=none;html=1;rounded=0;entryX=0.5;entryY=1;entryDx=0;entryDy=0;labelBackgroundColor=none;strokeColor=#A8201A;fontColor=default;" parent="1" edge="1">
          <mxGeometry width="50" height="50" relative="1" as="geometry">
            <mxPoint x="191.5" y="560" as="sourcePoint" />
            <mxPoint x="191.5" y="530" as="targetPoint" />
          </mxGeometry>
        </mxCell>
        <mxCell id="Bhm3AzSd8e_pB51hkN4D-45" value="" style="endArrow=none;html=1;rounded=0;exitX=0.5;exitY=0;exitDx=0;exitDy=0;entryX=0.5;entryY=1;entryDx=0;entryDy=0;labelBackgroundColor=none;strokeColor=#A8201A;fontColor=default;" parent="1" source="Bhm3AzSd8e_pB51hkN4D-21" target="Bhm3AzSd8e_pB51hkN4D-39" edge="1">
          <mxGeometry width="50" height="50" relative="1" as="geometry">
            <mxPoint x="388.5" y="520" as="sourcePoint" />
            <mxPoint x="438.5" y="470" as="targetPoint" />
          </mxGeometry>
        </mxCell>
        <mxCell id="Bhm3AzSd8e_pB51hkN4D-47" style="edgeStyle=orthogonalEdgeStyle;rounded=0;orthogonalLoop=1;jettySize=auto;html=1;exitX=0.5;exitY=1;exitDx=0;exitDy=0;entryX=0.5;entryY=0;entryDx=0;entryDy=0;labelBackgroundColor=none;strokeColor=#A8201A;fontColor=default;" parent="1" source="Bhm3AzSd8e_pB51hkN4D-46" edge="1">
          <mxGeometry relative="1" as="geometry">
            <mxPoint x="711.5" y="740" as="targetPoint" />
          </mxGeometry>
        </mxCell>
        <mxCell id="Bhm3AzSd8e_pB51hkN4D-46" value="gives" style="shape=rhombus;perimeter=rhombusPerimeter;whiteSpace=wrap;html=1;align=center;labelBackgroundColor=none;fillColor=#FAE5C7;strokeColor=#0F8B8D;fontColor=#143642;" parent="1" vertex="1">
          <mxGeometry x="651.5" y="648" width="120" height="60" as="geometry" />
        </mxCell>
        <mxCell id="Bhm3AzSd8e_pB51hkN4D-48" value="" style="endArrow=none;html=1;rounded=0;entryX=0.5;entryY=0;entryDx=0;entryDy=0;exitX=0.5;exitY=1;exitDx=0;exitDy=0;labelBackgroundColor=none;strokeColor=#A8201A;fontColor=default;" parent="1" source="Bhm3AzSd8e_pB51hkN4D-18" target="Bhm3AzSd8e_pB51hkN4D-46" edge="1">
          <mxGeometry width="50" height="50" relative="1" as="geometry">
            <mxPoint x="410" y="650" as="sourcePoint" />
            <mxPoint x="460" y="600" as="targetPoint" />
          </mxGeometry>
        </mxCell>
        <mxCell id="Bhm3AzSd8e_pB51hkN4D-52" style="edgeStyle=orthogonalEdgeStyle;rounded=0;orthogonalLoop=1;jettySize=auto;html=1;exitX=0;exitY=0.5;exitDx=0;exitDy=0;entryX=0.926;entryY=1;entryDx=0;entryDy=0;entryPerimeter=0;labelBackgroundColor=none;strokeColor=#A8201A;fontColor=default;" parent="1" source="Bhm3AzSd8e_pB51hkN4D-50" target="Bhm3AzSd8e_pB51hkN4D-6" edge="1">
          <mxGeometry relative="1" as="geometry" />
        </mxCell>
        <mxCell id="Bhm3AzSd8e_pB51hkN4D-53" style="edgeStyle=orthogonalEdgeStyle;rounded=0;orthogonalLoop=1;jettySize=auto;html=1;exitX=0.5;exitY=1;exitDx=0;exitDy=0;entryX=0.313;entryY=-0.024;entryDx=0;entryDy=0;entryPerimeter=0;labelBackgroundColor=none;strokeColor=#A8201A;fontColor=default;" parent="1" source="Bhm3AzSd8e_pB51hkN4D-50" target="Bhm3AzSd8e_pB51hkN4D-17" edge="1">
          <mxGeometry relative="1" as="geometry" />
        </mxCell>
        <mxCell id="Bhm3AzSd8e_pB51hkN4D-50" value="needs" style="shape=rhombus;perimeter=rhombusPerimeter;whiteSpace=wrap;html=1;align=center;labelBackgroundColor=none;fillColor=#FAE5C7;strokeColor=#0F8B8D;fontColor=#143642;" parent="1" vertex="1">
          <mxGeometry x="620" y="400" width="120" height="60" as="geometry" />
        </mxCell>
        <mxCell id="Bhm3AzSd8e_pB51hkN4D-54" value="&lt;br&gt;&lt;br&gt;&lt;br&gt;&amp;nbsp; &amp;nbsp; &amp;nbsp; &amp;nbsp; &amp;nbsp; &amp;nbsp; &amp;nbsp; &lt;br&gt;&lt;br&gt;&lt;span style=&quot;white-space: pre;&quot;&gt; &lt;/span&gt;&amp;nbsp; &amp;nbsp; &amp;nbsp;Serial&lt;br&gt;&lt;span style=&quot;font-size: 12px;&quot;&gt;&lt;br&gt;+serial_no&lt;br&gt;+serial_time&lt;/span&gt;&lt;br style=&quot;border-color: var(--border-color); font-size: 12px;&quot;&gt;&lt;span style=&quot;font-size: 12px;&quot;&gt;+serial_status&lt;/span&gt;&lt;br style=&quot;border-color: var(--border-color); font-size: 12px;&quot;&gt;&lt;span style=&quot;font-size: 12px;&quot;&gt;+auto_rickshaw_number&lt;/span&gt;" style="swimlane;childLayout=stackLayout;horizontal=1;startSize=50;horizontalStack=0;rounded=1;fontSize=14;fontStyle=0;strokeWidth=2;resizeParent=0;resizeLast=1;shadow=0;dashed=0;align=left;arcSize=4;whiteSpace=wrap;html=1;labelBackgroundColor=none;fillColor=#FAE5C7;strokeColor=#0F8B8D;fontColor=#143642;" parent="1" vertex="1">
          <mxGeometry x="110" y="560" width="163" height="138" as="geometry" />
        </mxCell>
        <mxCell id="Bhm3AzSd8e_pB51hkN4D-13" value="Manager" style="swimlane;childLayout=stackLayout;horizontal=1;startSize=50;horizontalStack=0;rounded=1;fontSize=14;fontStyle=0;strokeWidth=2;resizeParent=0;resizeLast=1;shadow=0;dashed=0;align=center;arcSize=4;whiteSpace=wrap;html=1;labelBackgroundColor=none;fillColor=#FAE5C7;strokeColor=#0F8B8D;fontColor=#143642;" parent="1" vertex="1">
          <mxGeometry x="110" y="810" width="163" height="139" as="geometry" />
        </mxCell>
        <mxCell id="Bhm3AzSd8e_pB51hkN4D-65" value="manages" style="shape=rhombus;perimeter=rhombusPerimeter;whiteSpace=wrap;html=1;align=center;labelBackgroundColor=none;fillColor=#FAE5C7;strokeColor=#0F8B8D;fontColor=#143642;" parent="1" vertex="1">
          <mxGeometry x="127.25" y="716" width="128.5" height="60" as="geometry" />
        </mxCell>
        <mxCell id="Bhm3AzSd8e_pB51hkN4D-66" value="" style="endArrow=none;html=1;rounded=0;strokeColor=#A8201A;fontColor=#143642;fillColor=#FAE5C7;exitX=0.5;exitY=0;exitDx=0;exitDy=0;entryX=0.5;entryY=1;entryDx=0;entryDy=0;" parent="1" source="Bhm3AzSd8e_pB51hkN4D-65" target="Bhm3AzSd8e_pB51hkN4D-54" edge="1">
          <mxGeometry relative="1" as="geometry">
            <mxPoint x="340" y="720" as="sourcePoint" />
            <mxPoint x="500" y="720" as="targetPoint" />
          </mxGeometry>
        </mxCell>
        <mxCell id="Bhm3AzSd8e_pB51hkN4D-67" value="" style="endArrow=none;html=1;rounded=0;strokeColor=#A8201A;fontColor=#143642;fillColor=#FAE5C7;exitX=0.5;exitY=1;exitDx=0;exitDy=0;entryX=0.5;entryY=0;entryDx=0;entryDy=0;" parent="1" source="Bhm3AzSd8e_pB51hkN4D-65" target="Bhm3AzSd8e_pB51hkN4D-13" edge="1">
          <mxGeometry relative="1" as="geometry">
            <mxPoint x="340" y="720" as="sourcePoint" />
            <mxPoint x="500" y="720" as="targetPoint" />
          </mxGeometry>
        </mxCell>
        <mxCell id="Bhm3AzSd8e_pB51hkN4D-68" value="" style="endArrow=none;html=1;rounded=0;strokeColor=#A8201A;fontColor=#143642;fillColor=#FAE5C7;exitX=1;exitY=0.5;exitDx=0;exitDy=0;entryX=0;entryY=0.5;entryDx=0;entryDy=0;" parent="1" source="Bhm3AzSd8e_pB51hkN4D-13" target="Bhm3AzSd8e_pB51hkN4D-30" edge="1">
          <mxGeometry relative="1" as="geometry">
            <mxPoint x="340" y="720" as="sourcePoint" />
            <mxPoint x="500" y="720" as="targetPoint" />
          </mxGeometry>
        </mxCell>
        <mxCell id="Bhm3AzSd8e_pB51hkN4D-70" value="" style="endArrow=none;html=1;rounded=0;strokeColor=#A8201A;fontColor=#143642;fillColor=#FAE5C7;exitX=0.5;exitY=0;exitDx=0;exitDy=0;" parent="1" source="Bhm3AzSd8e_pB51hkN4D-30" edge="1">
          <mxGeometry relative="1" as="geometry">
            <mxPoint x="340" y="720" as="sourcePoint" />
            <mxPoint x="433" y="710" as="targetPoint" />
          </mxGeometry>
        </mxCell>
        <mxCell id="Bhm3AzSd8e_pB51hkN4D-72" value="assigned to" style="shape=rhombus;perimeter=rhombusPerimeter;whiteSpace=wrap;html=1;align=center;labelBackgroundColor=none;fillColor=#FAE5C7;strokeColor=#0F8B8D;fontColor=#143642;" parent="1" vertex="1">
          <mxGeometry x="131.5" y="470" width="120" height="60" as="geometry" />
        </mxCell>
      </root>
    </mxGraphModel>
  </diagram>
</mxfile>
